<?xml version="1.0" encoding="UTF-8"?>
<!DOCTYPE svg PUBLIC "-//W3C//DTD SVG 1.1//EN" "http://www.w3.org/Graphics/SVG/1.1/DTD/svg11.dtd">
<!-- Creator: CorelDRAW 2018 (64-Bit) -->
<svg xmlns="http://www.w3.org/2000/svg" xml:space="preserve" width="7.65333in" height="6.57333in" version="1.1" style="shape-rendering:geometricPrecision; text-rendering:geometricPrecision; image-rendering:optimizeQuality; fill-rule:evenodd; clip-rule:evenodd"
viewBox="0 0 765333 657333"
 xmlns:xlink="http://www.w3.org/1999/xlink">
 <defs>
  <style type="text/css">
   <![CDATA[
    .fil0 {fill:black}
    .fil1 {fill:#F76300}
    .fil2 {fill:#F96200}
   ]]>
  </style>
 </defs>
 <g id="Layer_x0020_1">
  <metadata id="CorelCorpID_0Corel-Layer"/>
  <g id="_2467182246032">
   <path class="fil0" d="M40368 212128c0,1025 16489,19160 17131,21564 1760,-410 3574,-1163 5393,-1585 144,1730 1742,4785 2446,6434 1752,4102 3822,7886 5987,11773 1178,2115 1934,3963 3170,6027l22009 40471c554,957 1054,1933 1587,2854l9529 17429c3700,7497 10446,18230 14280,25999l9413 17544c2233,3988 4093,7729 6283,11795 13248,24593 8477,21702 16620,45857 3041,9018 2607,7318 1219,18581l-1952 17392c-760,5344 -1131,14077 -1131,19481 0,5630 611,19661 8565,19661 2881,0 3219,-480 5076,-634 245,1050 876,2279 1224,3217 5969,16087 10343,49414 13369,55132l-7797 1085c-15592,2402 -30295,7056 -44683,13048 -9219,3840 -17759,8724 -26512,13455l-11088 6674c-7931,4747 -24611,15789 -32008,21280l-10457 7305c-8778,5942 -17251,12457 -26073,18333l-7539 5782c-935,832 -1431,1115 -2376,2065 -2407,2420 -3702,4828 -6402,6919 -2146,1662 -5572,4662 -5572,7749 0,1540 61,2255 570,2537l2684 0c942,-105 2154,-240 3716,-326 9575,-532 20991,-1806 30760,-2548 1680,-128 4392,-458 6072,-589l12342 -981c6191,-306 12294,-1284 18400,-1586l73586 -6355c6071,-461 19260,-2039 24446,-2202 6379,-200 11987,-1419 18403,-1582 3944,-100 12966,-1430 18079,-1589l48991 -4303c2276,-326 3836,-293 6191,-472l24448 -2199c1978,-28 4219,-478 6046,-615l12351 -973c1918,-60 4173,-537 6034,-628l12360 -963c5393,-266 12506,-1304 18403,-1583l36781 -3189c6006,-452 12165,-1286 18101,-1567l12144 -1179c2074,-272 4176,-268 6234,-428l36800 -3171c1731,-134 4248,-567 6048,-613 2011,-51 4187,-210 6164,-497 2051,-298 4133,-315 6187,-475 39167,-3275 74694,-4282 113461,-6452 3867,-582 8685,-720 12512,-811 1532,-37 1444,-254 2848,-324 1249,-62 2102,53 3357,-133 6045,-894 12322,-783 18354,-1632l18034 -1951c29588,-3640 61058,-7854 89253,-17332 9796,-3293 19185,-6871 27658,-12309l5733 -4100c895,-689 1293,-622 1624,-1864l-11677 -6720c-9641,-5869 -28677,-12788 -39265,-16880 -9162,-3541 -18812,-6209 -28090,-9340l-14443 -4272c-32494,-9381 -65578,-16612 -98957,-22219 -11028,-1852 -21919,-3415 -32861,-4571 -2887,-305 -5925,-688 -8829,-688 0,-14579 -1594,-23311 -3807,-36785l-3886 -19899c-1993,-10036 -4487,-19641 -6088,-29748 -1896,-11968 -4163,-23426 -6490,-35054 -327,-1634 -650,-3312 -1046,-4980 -3118,-13144 -5624,-25326 -8949,-38622 -6150,-24593 -13454,-49407 -22081,-73061 -4176,-11450 -8863,-22957 -13322,-34250 -5488,-13900 -12384,-27231 -19035,-40590l-8308 -15478c-3007,-4977 -5615,-10117 -8822,-14965l-9328 -14459c-8272,-12480 -18096,-25974 -28348,-36989 -638,-685 -669,-907 -1268,-1587l-7498 -8043c-44,-48 -110,-115 -154,-163 -63,-68 -239,-265 -302,-333 -2703,-2965 -11625,-11572 -14464,-13765 -804,-620 -831,-629 -1530,-1324 -3497,-3476 -7678,-6368 -11615,-9320 -604,-452 -1069,-802 -1632,-1222 -3457,-2583 -5807,-6207 -8800,-9280 -648,-665 -814,-801 -1352,-1502l-8328 -9750c-1938,-2084 -3508,-4200 -5383,-6352 -6008,-6892 -11506,-14244 -18553,-20143l-18494 -14176 -14655 -9451c-4295,-2771 -5726,-3635 -7975,-3868l-7825 0c-8977,0 -19367,3084 -27878,5746 -1687,528 -3083,1144 -4917,1744 -6533,2138 -12939,4953 -19127,7835 -11477,5346 -22677,11233 -34133,16619 -802,377 -1420,787 -2296,1193 -3290,1526 -5854,3025 -9224,4416 -1730,715 -6881,2737 -7884,3852l-3940 4624c-935,1170 -2332,2399 -3453,3524l-6880 6442c-3172,2448 -5685,5508 -8672,8138l-13958 13319c-5362,4720 -10311,10011 -15389,15061 -809,805 -903,1064 -1596,1893 -2057,2460 -4634,4476 -6810,6828 -4299,4646 -8686,13128 -11829,18619 -1624,2836 -3404,5748 -5046,8592 -831,1439 -1515,2773 -2341,4320l-9517 17441c-832,1674 -1628,2998 -2435,4543 -1460,2795 -3273,6159 -4531,9106 -2068,4844 -4387,9101 -6389,13909 -2687,6452 -5418,12555 -7842,19115 -582,1575 -1263,3291 -1949,5028 -850,2154 -3397,8302 -3397,10241z"/>
   <path class="fil1" d="M152454 380844c414,-1655 2602,-962 6878,-962l23474 0c0,3628 598,18446 -314,20532l51672 -22270 606 12481 -23477 15196c-22389,14226 -51516,31130 -51243,65015 5295,1996 5005,1962 10409,402 3529,-1019 6889,-2081 10516,-3130 4737,-1370 5328,-2300 8774,-4545 2738,-1784 5464,-3611 8245,-5394 53874,-34520 97108,-55750 162277,-66751 5015,-846 7073,-1117 12318,-954 42087,1305 89722,-333 131449,-2810 846,-7016 -13946,-57748 -15870,-59660 -404,1220 -6,791 -1413,880l-29241 -113c-971,-152 -941,-217 -1025,-562l-233 -1260c-31,-397 1,-1161 6,-1593 12,-1059 6,-2119 6,-3179 4836,0 27750,-569 30220,314 -1110,-4524 -3240,-9891 -4781,-14322l-14909 -42180c-2991,-8263 -17365,-48657 -18698,-57154 -34433,1680 -71428,8524 -102697,17426 -31696,9023 -58502,20606 -84931,34972 -13217,7184 -25169,15284 -36540,23408l-16736 13073c-1348,1157 -2507,2100 -3941,3354 -1283,1123 -2891,2346 -4136,3486 -1541,1411 -2431,2152 -3942,3660 -1400,1397 -2325,1935 -3962,3656 -2507,2635 -5088,4748 -7623,7284 -2502,2502 -4778,5313 -7247,7662 -3842,3655 -10393,11462 -14175,15955 -4568,5428 -8813,10837 -13101,16712 -3951,5413 -3569,3509 1085,15944 484,1294 1371,4471 2302,5426zm0 0c11,1669 4089,11515 4991,13920 1380,3680 4377,10657 5028,14346l20018 -8696c912,-2086 314,-16904 314,-20532l-23474 0c-4275,0 -6464,-693 -6878,962zm335713 -52850c13,-1190 -1048,-4783 -1680,-5513 -2470,-883 -25384,-314 -30220,-314 0,1059 6,2119 -6,3179 -5,431 -37,1195 -6,1593l233 1260c84,345 54,410 1025,562l29241 113c1407,-89 1009,341 1413,-880z"/>
   <path class="fil1" d="M24872 644352c5491,3248 77059,-8864 87866,-10710 57185,-9773 115424,-19980 172928,-27230 77804,-9753 152146,-18008 230877,-19332 48959,-870 99117,628 147110,-909 25499,-821 57862,-3731 81002,-15997 290,-165 706,-357 1015,-570l957 -851c-68128,-13494 -135636,-35455 -205967,-42676 -22986,-2359 -56615,-5906 -92245,-5674 -45373,300 -93646,5161 -123176,9124 -24146,3209 -46726,7318 -70370,12760 -20985,4843 -66117,17670 -85816,24900 -22561,8284 -55291,23354 -75948,34750 -12170,6709 -23663,12915 -35223,19961 -4089,2494 -30265,18946 -33010,22455z"/>
   <path class="fil0" d="M397248 232609c-12722,2531 -21168,14605 -24978,26836 -8235,26437 -4041,62212 8757,86241 5027,9437 15309,22914 30497,21519 14349,-1319 22337,-12765 25957,-25770 7050,-25327 299,-63356 -11434,-86099 -4665,-9043 -14928,-25486 -28800,-22726z"/>
   <path class="fil0" d="M316690 250683c-13318,1838 -21893,14099 -26220,25620 -9324,24822 -6374,63633 5544,86817 5165,10048 14072,23034 28918,22678 15147,-363 23250,-12023 27396,-24188 12817,-37607 -6713,-114920 -35638,-110928z"/>
   <path class="fil0" d="M226372 332858c1781,-1324 4394,-5258 8429,-8509 3772,-3039 7544,-4413 11757,-263 6881,6779 9332,47937 9813,58642 246,5491 454,10991 598,16487 143,5483 -60,11817 403,17172 5503,-6470 10689,-20331 12631,-29224 6326,-28986 -820,-62966 -9242,-90919 -953,-3163 -3984,-13871 -5306,-15961 -3885,1329 -10222,5531 -12677,7649 -12994,11205 -17080,26291 -16405,44927z"/>
   <path class="fil2" d="M396886 248126c-5739,1913 -6697,19652 -6828,26783 -327,17824 2533,42385 7996,59148 2120,6504 7195,20292 14097,19519 5652,-633 6531,-20759 6681,-26969 255,-10624 -415,-21520 -1695,-31929 -1198,-9730 -2925,-19037 -5620,-27988 -1866,-6200 -7366,-20986 -14631,-18564z"/>
   <path class="fil2" d="M315246 266346c-2023,757 -2894,2226 -3853,4553 -10072,24438 -444,104906 15914,101199 4961,-1124 6666,-20028 7042,-26167 1131,-18472 -397,-42994 -5137,-60712 -1653,-6180 -6803,-21551 -13965,-18874z"/>
   <path class="fil2" d="M228017 28125c-107,776 -162,2028 -165,3240l137 3197c283,1332 2363,937 4624,933l58689 0c1655,0 7953,774 8653,-508 -366,-1228 -14978,-14325 -17055,-16148l-10315 -9546c-3587,1088 -7641,3013 -11258,4484 -3808,1549 -32125,13378 -33311,14348zm71939 6862c-700,1282 -6998,508 -8653,508l-58689 0c-2262,4 -4341,399 -4624,-933l-137 -3197c3,-1211 58,-2464 165,-3240 -1120,275 -48050,20589 -55478,23424 -2617,998 -4985,2871 -7038,4379 -4390,3226 -8737,6226 -12926,9596l-12363 10159c-6140,4876 -17553,16357 -22912,22133 -30720,33114 -56052,75951 -54206,122863l432 2310c8399,-4389 17324,-13966 25594,-17705 333,5324 -1333,18682 -2596,23832 -2959,12072 -8822,14778 -9844,16624l6789 9233c2248,3198 4298,6428 6583,9594 3623,5022 9885,14138 14631,17724 4330,3273 6222,4998 10405,406l48720 -56585c4185,-4802 12767,-15232 16933,-19543l21901 -22816c1440,-1344 2981,-2555 4297,-3953 1623,-1725 2664,-2326 4101,-3827 861,-900 1298,-1151 2217,-1911l10957 -9334c7964,-6529 30080,-22254 39091,-25619 26203,-9786 59600,-17681 87711,-25854 4218,-1226 22099,-6634 24383,-8313l-13894 -13095c-1679,-1441 -3100,-2983 -4774,-4425l-9378 -8702c-1681,-1450 -3102,-2987 -4774,-4427l-35123 -32746c-2278,-1962 -6011,-5844 -7501,-6562z"/>
  </g>
 </g>
</svg>
