<svg xmlns="http://www.w3.org/2000/svg" height="118" width="200">
<rect fill="#000" width="200" height="118"/>
<rect fill="#fff" width="192.74637" height="54.152077" x="3.5441723" y="60.905453"/>
<path fill="#000" d="M 98.669922 67.458984 C 85.563368 67.458984 74.931641 76.688425 74.931641 88.119141 C 74.931641 99.374769 85.563368 108.95508 98.669922 108.95508 C 111.75146 108.95508 122.35547 99.374769 122.35547 88.119141 C 122.35547 76.688425 111.75146 67.458984 98.669922 67.458984 z M 44.142578 68.759766 L 13.806641 68.910156 L 13.806641 107.45312 L 24.464844 107.45312 L 24.464844 92.445312 L 44.142578 92.445312 C 58.52477 92.445312 58.549782 68.684729 44.142578 68.759766 z M 175.88281 68.759766 L 145.56836 68.910156 L 145.56836 107.45312 L 156.22266 107.45312 L 156.22266 92.445312 L 175.88281 92.445312 C 190.23999 92.445312 190.29001 68.684729 175.88281 68.759766 z M 25.283203 77.064453 L 40.291016 77.064453 C 45.21848 77.064453 45.168455 84.066406 40.291016 84.066406 L 25.283203 84.066406 L 25.283203 77.064453 z M 157.02344 77.064453 L 172.03125 77.064453 C 176.9337 77.064453 176.90869 84.066406 172.03125 84.066406 L 157.02344 84.066406 L 157.02344 77.064453 z M 98.919922 77.164062 C 106.14854 77.164062 112 82.290977 112 88.619141 C 112 94.872268 106.14854 100.09961 98.919922 100.09961 C 91.666295 100.09961 85.787109 94.872268 85.787109 88.619141 C 85.787109 82.290977 91.666295 77.164062 98.919922 77.164062 z M 64.152344 81.166016 L 57.273438 88.96875 L 64.152344 96.773438 L 71.90625 96.773438 L 65.101562 88.96875 L 71.90625 81.166016 L 64.152344 81.166016 z M 133.06055 81.166016 L 126.18359 88.96875 L 133.06055 96.773438 L 140.81445 96.773438 L 134.01172 88.96875 L 140.81445 81.166016 L 133.06055 81.166016 z "/>
<path fill="#fff" d="M 35.261719 10.679688 C 22.292734 10.679688 14.677734 15.482135 14.677734 23.085938 C 14.677734 38.668729 45.867188 31.766661 45.867188 39.070312 C 45.867188 42.021788 40.715264 43.171875 35.1875 43.171875 C 30.710261 43.171875 24.866713 40.845441 22.845703 38.244141 L 12.078125 39.695312 C 13.24871 46.973953 23.397233 51.826488 34.712891 51.976562 C 48.06957 52.126638 56.623047 46.122514 56.623047 38.59375 C 56.623047 21.660283 25.908203 29.314299 25.908203 21.810547 C 25.908203 19.084183 30.460195 17.984375 34.287109 17.984375 C 39.139535 17.984375 42.841362 20.059549 44.492188 22.835938 L 55.347656 21.886719 C 53.721843 16.859205 49.743961 10.679688 35.261719 10.679688 z M 78.308594 10.955078 L 78.308594 36.667969 C 78.308594 46.397834 86.163422 52.375566 99.945312 52.025391 C 113.72721 52.375566 121.58008 46.397834 121.58008 36.667969 L 121.58008 10.955078 L 110.44922 10.955078 L 110.44922 35.917969 C 110.44922 40.870445 105.34802 42.771484 99.945312 42.771484 C 94.542611 42.771484 89.414062 40.870445 89.414062 35.917969 L 89.414062 10.955078 L 78.308594 10.955078 z M 148.54492 10.955078 L 148.56836 51.25 L 179.05859 51.25 C 186.03707 51.25 191.08984 46.798364 191.08984 40.695312 C 191.08984 32.266098 183.4375 30.715346 183.4375 30.490234 C 183.4375 30.265121 188.63867 29.815874 188.63867 22.287109 C 188.63867 17.734833 185.73761 10.955078 176.9082 10.955078 L 148.54492 10.955078 z M 159.82422 18.933594 L 173.38086 18.933594 C 179.23378 18.933594 179.53393 25.962891 173.38086 25.962891 L 159.82422 25.962891 L 159.82422 18.933594 z M 59.798828 23.5625 L 66.603516 31.365234 L 59.798828 39.144531 L 67.552734 39.144531 L 74.431641 31.365234 L 67.552734 23.5625 L 59.798828 23.5625 z M 128.13477 23.5625 L 134.9375 31.365234 L 128.13477 39.144531 L 135.88867 39.144531 L 142.76562 31.365234 L 135.88867 23.5625 L 128.13477 23.5625 z M 159.82422 34.792969 L 173.38086 34.792969 C 181.20977 34.792969 180.58446 43.421875 173.38086 43.421875 L 159.82422 43.421875 L 159.82422 34.792969 z "/>
</svg>
